<?xml version="1.0" encoding="utf-8" standalone="no"?>
<!DOCTYPE svg PUBLIC "-//W3C//DTD SVG 1.1//EN"
  "http://www.w3.org/Graphics/SVG/1.1/DTD/svg11.dtd">
<!-- Created with matplotlib (https://matplotlib.org/) -->
<svg height="597.6pt" version="1.1" viewBox="0 0 842.4 597.6" width="842.4pt" xmlns="http://www.w3.org/2000/svg" xmlns:xlink="http://www.w3.org/1999/xlink">
 <metadata>
  <rdf:RDF xmlns:cc="http://creativecommons.org/ns#" xmlns:dc="http://purl.org/dc/elements/1.1/" xmlns:rdf="http://www.w3.org/1999/02/22-rdf-syntax-ns#">
   <cc:Work>
    <dc:type rdf:resource="http://purl.org/dc/dcmitype/StillImage"/>
    <dc:date>2021-02-23T15:15:44.563447</dc:date>
    <dc:format>image/svg+xml</dc:format>
    <dc:creator>
     <cc:Agent>
      <dc:title>Matplotlib v3.3.4, https://matplotlib.org/</dc:title>
     </cc:Agent>
    </dc:creator>
   </cc:Work>
  </rdf:RDF>
 </metadata>
 <defs>
  <style type="text/css">*{stroke-linecap:butt;stroke-linejoin:round;}</style>
 </defs>
 <g id="figure_1">
  <g id="patch_1">
   <path d="M 0 597.6 
L 842.4 597.6 
L 842.4 0 
L 0 0 
z
" style="fill:none;"/>
  </g>
  <g id="axes_1">
   <g id="patch_2">
    <path d="M 9.927273 574.834286 
L 609.818182 574.834286 
L 609.818182 5.691429 
L 9.927273 5.691429 
z
" style="fill:#ffffff;"/>
   </g>
   <g id="patch_3">
    <path clip-path="url(#p76539f582a)" d="M 242.72076 129.207538 
L 363.594301 129.207538 
L 363.594301 172.801459 
L 242.72076 172.801459 
z
" style="opacity:0.3;"/>
   </g>
   <g id="patch_4">
    <path clip-path="url(#p76539f582a)" d="M 274.058345 129.207538 
L 426.269471 129.207538 
L 426.269471 172.801459 
L 274.058345 172.801459 
z
" style="opacity:0.3;"/>
   </g>
   <g id="patch_5">
    <path clip-path="url(#p76539f582a)" d="M 148.708005 80.769848 
L 175.568792 80.769848 
L 175.568792 124.363769 
L 148.708005 124.363769 
z
" style="opacity:0.3;"/>
   </g>
   <g id="patch_6">
    <path clip-path="url(#p76539f582a)" d="M 211.383175 80.769848 
L 300.919132 80.769848 
L 300.919132 124.363769 
L 211.383175 124.363769 
z
" style="opacity:0.3;"/>
   </g>
   <g id="patch_7">
    <path clip-path="url(#p76539f582a)" d="M 180.04559 32.332158 
L 238.243962 32.332158 
L 238.243962 75.926079 
L 180.04559 75.926079 
z
" style="opacity:0.3;"/>
   </g>
   <g id="patch_8">
    <path clip-path="url(#p76539f582a)" d="M 148.708005 226.082918 
L 175.568792 226.082918 
L 175.568792 269.676839 
L 148.708005 269.676839 
z
" style="fill:#957dad;"/>
   </g>
   <g id="patch_9">
    <path clip-path="url(#p76539f582a)" d="M 180.04559 274.520608 
L 238.243962 274.520608 
L 238.243962 318.114529 
L 180.04559 318.114529 
z
" style="fill:#e0bbe4;"/>
   </g>
   <g id="patch_10">
    <path clip-path="url(#p76539f582a)" d="M 211.383175 274.520608 
L 300.919132 274.520608 
L 300.919132 318.114529 
L 211.383175 318.114529 
z
" style="fill:#d291bc;"/>
   </g>
   <g id="patch_11">
    <path clip-path="url(#p76539f582a)" d="M 242.72076 371.395988 
L 363.594301 371.395988 
L 363.594301 414.989909 
L 242.72076 414.989909 
z
" style="fill:#ffff00;"/>
   </g>
   <g id="patch_12">
    <path clip-path="url(#p76539f582a)" d="M 274.058345 419.833678 
L 426.269471 419.833678 
L 426.269471 463.427599 
L 274.058345 463.427599 
z
" style="fill:#7f7f7f;"/>
   </g>
   <g id="patch_13">
    <path clip-path="url(#p76539f582a)" d="M 9.927273 516.709058 
L 609.818182 516.709058 
L 609.818182 560.302979 
L 9.927273 560.302979 
z
" style="fill:#7f7f7f;"/>
   </g>
   <g id="matplotlib.axis_1">
    <g id="xtick_1">
     <g id="line2d_1">
      <path clip-path="url(#p76539f582a)" d="M 148.708005 574.834286 
L 148.708005 5.691429 
" style="fill:none;stroke:#7f7f7f;stroke-dasharray:0.75,1.2375;stroke-dashoffset:0;stroke-opacity:0.5;stroke-width:0.75;"/>
     </g>
     <g id="line2d_2">
      <defs>
       <path d="M 0 0 
L 0 3.5 
" id="ma8c424f722" style="stroke:#000000;stroke-width:0.8;"/>
      </defs>
      <g>
       <use style="stroke:#000000;stroke-width:0.8;" x="148.708005" xlink:href="#ma8c424f722" y="574.834286"/>
      </g>
     </g>
     <g id="text_1">
      <!-- Jan  -->
      <g transform="translate(142.363823 587.512942)scale(0.08 -0.08)">
       <defs>
        <path d="M 33.296875 73 
L 33.296875 21.859375 
C 33.296875 16.078125 32.703125 12.78125 31 10.296875 
C 29.203125 7.5 25.796875 5.8125 22.09375 5.8125 
C 15.09375 5.8125 11.203125 10.484375 11.203125 18.96875 
L 11.203125 23.640625 
L 1.703125 23.640625 
L 1.703125 17.25 
C 1.703125 5.46875 9.5 -2 22 -2 
C 34.703125 -2 42.59375 5.875 42.59375 18.4375 
L 42.59375 73 
z
" id="Nimbus_Sans_L_Regular-74"/>
        <path d="M 53.5 5.203125 
C 52.59375 5 52.203125 5 51.703125 5 
C 48.796875 5 47.203125 6.484375 47.203125 9.078125 
L 47.203125 39.765625 
C 47.203125 49.015625 40.40625 54 27.5 54 
C 19.90625 54 13.59375 51.8125 10.09375 47.90625 
C 7.703125 45.203125 6.703125 42.21875 6.5 37.03125 
L 14.90625 37.03125 
C 15.59375 43.390625 19.40625 46.28125 27.203125 46.28125 
C 34.703125 46.28125 38.90625 43.484375 38.90625 38.515625 
L 38.90625 36.328125 
C 38.90625 32.828125 36.796875 31.34375 30.203125 30.546875 
C 18.40625 29.0625 16.59375 28.65625 13.40625 27.359375 
C 7.296875 24.875 4.203125 20.1875 4.203125 13.421875 
C 4.203125 3.96875 10.796875 -2 21.40625 -2 
C 28 -2 33.296875 0.296875 39.203125 5.703125 
C 39.796875 0.390625 42.40625 -2 47.796875 -2 
C 49.5 -2 50.796875 -1.8125 53.5 -1.09375 
z
M 38.90625 16.75 
C 38.90625 13.953125 38.09375 12.265625 35.59375 9.984375 
C 32.203125 6.890625 28.09375 5.3125 23.203125 5.3125 
C 16.703125 5.3125 12.90625 8.390625 12.90625 13.65625 
C 12.90625 19.140625 16.59375 21.921875 25.5 23.21875 
C 34.296875 24.40625 36.09375 24.8125 38.90625 26.09375 
z
" id="Nimbus_Sans_L_Regular-97"/>
        <path d="M 7 52.484375 
L 7 0 
L 15.40625 0 
L 15.40625 28.953125 
C 15.40625 39.671875 21 46.6875 29.59375 46.6875 
C 36.203125 46.6875 40.40625 42.671875 40.40625 36.359375 
L 40.40625 0 
L 48.703125 0 
L 48.703125 39.671875 
C 48.703125 48.390625 42.203125 54 32.09375 54 
C 24.296875 54 19.296875 50.984375 14.703125 43.6875 
L 14.703125 52.484375 
z
" id="Nimbus_Sans_L_Regular-110"/>
       </defs>
       <use transform="scale(0.996264)" xlink:href="#Nimbus_Sans_L_Regular-74"/>
       <use transform="translate(47.821189 0)scale(0.996264)" xlink:href="#Nimbus_Sans_L_Regular-97"/>
       <use transform="translate(103.212866 0)scale(0.996264)" xlink:href="#Nimbus_Sans_L_Regular-110"/>
      </g>
      <!--  2021 -->
      <g transform="translate(139.845336 596.024912)scale(0.08 -0.08)">
       <defs>
        <path d="M 50.59375 8.71875 
L 13.296875 8.71875 
C 14.203125 14.53125 17.40625 18.234375 26.09375 23.34375 
L 36.09375 28.75 
C 46 34.15625 51.09375 41.453125 51.09375 50.171875 
C 51.09375 56.078125 48.703125 61.59375 44.5 65.390625 
C 40.296875 69.203125 35.09375 71 28.40625 71 
C 19.40625 71 12.703125 67.796875 8.796875 61.796875 
C 6.296875 57.984375 5.203125 53.578125 5 46.359375 
L 13.796875 46.359375 
C 14.09375 51.171875 14.703125 54.078125 15.90625 56.375 
C 18.203125 60.6875 22.796875 63.296875 28.09375 63.296875 
C 36.09375 63.296875 42.09375 57.578125 42.09375 49.96875 
C 42.09375 44.359375 38.796875 39.546875 32.5 35.953125 
L 23.296875 30.75 
C 8.5 22.34375 4.203125 15.625 3.40625 0 
L 50.59375 0 
z
" id="Nimbus_Sans_L_Regular-50"/>
        <path d="M 27.5 71 
C 20.90625 71 14.90625 68.125 11.203125 63.21875 
C 6.59375 57.046875 4.296875 47.5625 4.296875 34.5 
C 4.296875 10.671875 12.296875 -2 27.5 -2 
C 42.5 -2 50.703125 10.671875 50.703125 33.90625 
C 50.703125 47.65625 48.5 56.84375 43.796875 63.21875 
C 40.09375 68.21875 34.203125 71 27.5 71 
z
M 27.5 63.1875 
C 37 63.1875 41.703125 53.625 41.703125 34.703125 
C 41.703125 14.671875 37.09375 5.3125 27.296875 5.3125 
C 18 5.3125 13.296875 15.078125 13.296875 34.40625 
C 13.296875 53.71875 18 63.1875 27.5 63.1875 
z
" id="Nimbus_Sans_L_Regular-48"/>
        <path d="M 25.90625 50.59375 
L 25.90625 0 
L 34.703125 0 
L 34.703125 71.015625 
L 28.90625 71.015625 
C 25.796875 60.109375 23.796875 58.609375 10.203125 56.90625 
L 10.203125 50.59375 
z
" id="Nimbus_Sans_L_Regular-49"/>
       </defs>
       <use transform="scale(0.996264)" xlink:href="#Nimbus_Sans_L_Regular-50"/>
       <use transform="translate(55.391677 0)scale(0.996264)" xlink:href="#Nimbus_Sans_L_Regular-48"/>
       <use transform="translate(110.783354 0)scale(0.996264)" xlink:href="#Nimbus_Sans_L_Regular-50"/>
       <use transform="translate(166.175031 0)scale(0.996264)" xlink:href="#Nimbus_Sans_L_Regular-49"/>
      </g>
     </g>
    </g>
    <g id="xtick_2">
     <g id="line2d_3">
      <path clip-path="url(#p76539f582a)" d="M 551.61981 574.834286 
L 551.61981 5.691429 
" style="fill:none;stroke:#7f7f7f;stroke-dasharray:0.75,1.2375;stroke-dashoffset:0;stroke-opacity:0.5;stroke-width:0.75;"/>
     </g>
     <g id="line2d_4">
      <g>
       <use style="stroke:#000000;stroke-width:0.8;" x="551.61981" xlink:href="#ma8c424f722" y="574.834286"/>
      </g>
     </g>
     <g id="text_2">
      <!-- Apr  -->
      <g transform="translate(545.419132 587.512942)scale(0.08 -0.08)">
       <defs>
        <path d="M 47.40625 22 
L 54.90625 0 
L 65.296875 0 
L 39.703125 73 
L 27.703125 73 
L 1.703125 0 
L 11.59375 0 
L 19.296875 22 
z
M 44.796875 29.8125 
L 21.59375 29.8125 
L 33.59375 63 
z
" id="Nimbus_Sans_L_Regular-65"/>
        <path d="M 5.40625 -22 
L 13.796875 -22 
L 13.796875 5 
C 18.203125 -0.421875 23.09375 -2.8125 29.90625 -2.8125 
C 43.40625 -2.8125 52.296875 8.15625 52.296875 24.984375 
C 52.296875 42.71875 43.703125 53.8125 29.796875 53.8125 
C 22.703125 53.8125 17 50.59375 13.09375 44.390625 
L 13.09375 52.328125 
L 5.40625 52.328125 
z
M 28.40625 46 
C 37.59375 46 43.59375 37.8125 43.59375 25.1875 
C 43.59375 13.171875 37.5 5 28.40625 5 
C 19.59375 5 13.796875 13.078125 13.796875 25.5 
C 13.796875 37.921875 19.59375 46 28.40625 46 
z
" id="Nimbus_Sans_L_Regular-112"/>
        <path d="M 6.90625 52.484375 
L 6.90625 0 
L 15.296875 0 
L 15.296875 27.203125 
C 15.296875 34.703125 17.203125 39.609375 21.203125 42.5 
C 23.796875 44.40625 26.296875 45 32.09375 45 
L 32.09375 53.625 
C 30.703125 53.8125 30 53.8125 28.90625 53.8125 
C 23.5 53.8125 19.40625 50.625 14.59375 42.90625 
L 14.59375 52.484375 
z
" id="Nimbus_Sans_L_Regular-114"/>
       </defs>
       <use transform="scale(0.996264)" xlink:href="#Nimbus_Sans_L_Regular-65"/>
       <use transform="translate(66.450031 0)scale(0.996264)" xlink:href="#Nimbus_Sans_L_Regular-112"/>
       <use transform="translate(121.841708 0)scale(0.996264)" xlink:href="#Nimbus_Sans_L_Regular-114"/>
      </g>
      <!--  2021 -->
      <g transform="translate(542.757141 596.024912)scale(0.08 -0.08)">
       <use transform="scale(0.996264)" xlink:href="#Nimbus_Sans_L_Regular-50"/>
       <use transform="translate(55.391677 0)scale(0.996264)" xlink:href="#Nimbus_Sans_L_Regular-48"/>
       <use transform="translate(110.783354 0)scale(0.996264)" xlink:href="#Nimbus_Sans_L_Regular-50"/>
       <use transform="translate(166.175031 0)scale(0.996264)" xlink:href="#Nimbus_Sans_L_Regular-49"/>
      </g>
     </g>
    </g>
    <g id="xtick_3">
     <g id="line2d_5">
      <path clip-path="url(#p76539f582a)" d="M 9.927273 574.834286 
L 9.927273 5.691429 
" style="fill:none;stroke:#7f7f7f;stroke-dasharray:0.75,1.2375;stroke-dashoffset:0;stroke-opacity:0.2;stroke-width:0.75;"/>
     </g>
     <g id="line2d_6">
      <defs>
       <path d="M 0 0 
L 0 2 
" id="mb52ec78fe7" style="stroke:#000000;stroke-width:0.6;"/>
      </defs>
      <g>
       <use style="stroke:#000000;stroke-width:0.6;" x="9.927273" xlink:href="#mb52ec78fe7" y="574.834286"/>
      </g>
     </g>
    </g>
    <g id="xtick_4">
     <g id="line2d_7">
      <path clip-path="url(#p76539f582a)" d="M 287.488738 574.834286 
L 287.488738 5.691429 
" style="fill:none;stroke:#7f7f7f;stroke-dasharray:0.75,1.2375;stroke-dashoffset:0;stroke-opacity:0.2;stroke-width:0.75;"/>
     </g>
     <g id="line2d_8">
      <g>
       <use style="stroke:#000000;stroke-width:0.6;" x="287.488738" xlink:href="#mb52ec78fe7" y="574.834286"/>
      </g>
     </g>
    </g>
    <g id="xtick_5">
     <g id="line2d_9">
      <path clip-path="url(#p76539f582a)" d="M 412.839077 574.834286 
L 412.839077 5.691429 
" style="fill:none;stroke:#7f7f7f;stroke-dasharray:0.75,1.2375;stroke-dashoffset:0;stroke-opacity:0.2;stroke-width:0.75;"/>
     </g>
     <g id="line2d_10">
      <g>
       <use style="stroke:#000000;stroke-width:0.6;" x="412.839077" xlink:href="#mb52ec78fe7" y="574.834286"/>
      </g>
     </g>
    </g>
   </g>
   <g id="matplotlib.axis_2">
    <g id="ytick_1">
     <g id="line2d_11">
      <defs>
       <path d="M 0 0 
L 3.5 0 
" id="maf5d7fdf2a" style="stroke:#000000;stroke-width:0.8;"/>
      </defs>
      <g>
       <use style="stroke:#000000;stroke-width:0.8;" x="609.818182" xlink:href="#maf5d7fdf2a" y="199.442188"/>
      </g>
     </g>
     <g id="text_3">
      <!-- \textbf{Group A} -->
      <g transform="translate(616.818182 202.405077)scale(0.08 -0.08)">
       <defs>
        <path d="M 71.09375 39.515625 
L 41.90625 39.515625 
L 41.90625 27 
L 58.5 27 
C 58.09375 22.90625 57.09375 20.40625 54.90625 17.8125 
C 51.296875 13.421875 45.796875 10.8125 40 10.8125 
C 27.90625 10.8125 19.203125 21.5 19.203125 36.609375 
C 19.203125 52.421875 26.90625 62 39.59375 62 
C 44.796875 62 49.203125 60.46875 52.5 57.515625 
C 54.59375 55.6875 55.703125 53.953125 57 50.09375 
L 71.09375 50.09375 
C 69.296875 65.21875 57.09375 74.8125 39.5 74.8125 
C 18.5 74.8125 4.203125 59.234375 4.203125 36.40625 
C 4.203125 14.1875 18.59375 -2 38.296875 -2 
C 48.09375 -2 54.703125 1.5 60.296875 9.703125 
L 62.09375 0.09375 
L 71.09375 0.09375 
z
" id="Nimbus_Sans_L_Bold-71"/>
        <path d="M 6.296875 54.09375 
L 6.296875 0 
L 20.296875 0 
L 20.296875 28.75 
C 20.296875 36.96875 24.40625 41.0625 32.59375 41.0625 
C 34.09375 41.0625 35.09375 40.96875 37 40.65625 
L 37 54.90625 
C 36.203125 55 35.703125 55 35.296875 55 
C 28.90625 55 23.296875 50.78125 20.296875 43.46875 
L 20.296875 54.09375 
z
" id="Nimbus_Sans_L_Bold-114"/>
        <path d="M 30.09375 55.328125 
C 13.59375 55.328125 3.5 44.40625 3.5 26.65625 
C 3.5 8.8125 13.59375 -2 30.203125 -2 
C 46.59375 -2 56.90625 8.90625 56.90625 26.25 
C 56.90625 44.609375 47 55.328125 30.09375 55.328125 
z
M 30.203125 44 
C 37.90625 44 42.90625 37.09375 42.90625 26.453125 
C 42.90625 16.328125 37.703125 9.3125 30.203125 9.3125 
C 22.59375 9.3125 17.5 16.328125 17.5 26.65625 
C 17.5 36.984375 22.59375 44 30.203125 44 
z
" id="Nimbus_Sans_L_Bold-111"/>
        <path d="M 54.09375 0 
L 54.09375 54.09375 
L 40.09375 54.09375 
L 40.09375 20.453125 
C 40.09375 14.09375 35.59375 9.90625 28.796875 9.90625 
C 22.796875 9.90625 19.796875 13.109375 19.796875 19.5625 
L 19.796875 54.09375 
L 5.796875 54.09375 
L 5.796875 16.625 
C 5.796875 4.765625 12.40625 -2 23.90625 -2 
C 31.203125 -2 36.09375 0.671875 40.09375 6.609375 
L 40.09375 0 
z
" id="Nimbus_Sans_L_Bold-117"/>
        <path d="M 19.796875 53.9375 
L 5.796875 53.9375 
L 5.796875 -22 
L 19.796875 -22 
L 19.796875 6.09375 
C 23.203125 0.09375 28 -2.71875 34.796875 -2.71875 
C 47.796875 -2.71875 57.40625 9.5 57.40625 25.953125 
C 57.40625 33.5625 55.203125 41.1875 51.59375 46.203125 
C 48 51.3125 41.296875 54.71875 34.796875 54.71875 
C 28 54.71875 23.203125 51.828125 19.796875 45.828125 
z
M 31.59375 43 
C 38.703125 43 43.40625 36.078125 43.40625 25.75 
C 43.40625 15.921875 38.5 9 31.59375 9 
C 24.59375 9 19.796875 15.8125 19.796875 25.953125 
C 19.796875 36.078125 24.59375 43 31.59375 43 
z
" id="Nimbus_Sans_L_Bold-112"/>
        <path d="M 50.09375 14.46875 
L 54.90625 0 
L 70.296875 0 
L 45.09375 73 
L 28.5 73 
L 2.59375 0 
L 17.90625 0 
L 22.796875 14.46875 
z
M 46 27 
L 27 27 
L 36.5 55.6875 
z
" id="Nimbus_Sans_L_Bold-65"/>
       </defs>
       <use transform="scale(0.996264)" xlink:href="#Nimbus_Sans_L_Bold-71"/>
       <use transform="translate(77.50837 0)scale(0.996264)" xlink:href="#Nimbus_Sans_L_Bold-114"/>
       <use transform="translate(114.270065 0)scale(0.996264)" xlink:href="#Nimbus_Sans_L_Bold-111"/>
       <use transform="translate(175.141696 0)scale(0.996264)" xlink:href="#Nimbus_Sans_L_Bold-117"/>
       <use transform="translate(236.013326 0)scale(0.996264)" xlink:href="#Nimbus_Sans_L_Bold-112"/>
       <use transform="translate(324.580127 0)scale(0.996264)" xlink:href="#Nimbus_Sans_L_Bold-65"/>
      </g>
     </g>
    </g>
    <g id="ytick_2">
     <g id="line2d_12">
      <g>
       <use style="stroke:#000000;stroke-width:0.8;" x="609.818182" xlink:href="#maf5d7fdf2a" y="247.879878"/>
      </g>
     </g>
     <g id="text_4">
      <!-- Job 1 -->
      <g transform="translate(616.818182 250.719207)scale(0.08 -0.08)">
       <defs>
        <path d="M 27.203125 54 
C 12.5 54 3.59375 43.53125 3.59375 25.984375 
C 3.59375 8.453125 12.40625 -2 27.296875 -2 
C 42 -2 51 8.453125 51 25.59375 
C 51 43.625 42.296875 54 27.203125 54 
z
M 27.296875 46.28125 
C 36.703125 46.28125 42.296875 38.625 42.296875 25.703125 
C 42.296875 13.453125 36.5 5.703125 27.296875 5.703125 
C 18 5.703125 12.296875 13.359375 12.296875 25.984375 
C 12.296875 38.53125 18 46.28125 27.296875 46.28125 
z
" id="Nimbus_Sans_L_Regular-111"/>
        <path d="M 5.40625 73 
L 5.40625 -0.03125 
L 12.90625 -0.03125 
L 12.90625 7 
C 16.90625 0.890625 22.203125 -2 29.5 -2 
C 43.296875 -2 52.296875 9.25 52.296875 26.59375 
C 52.296875 43.53125 43.703125 54 29.90625 54 
C 22.703125 54 17.59375 51.28125 13.703125 45.390625 
L 13.703125 73 
z
M 28.296875 46.1875 
C 37.59375 46.1875 43.59375 38.125 43.59375 25.703125 
C 43.59375 13.859375 37.40625 5.8125 28.296875 5.8125 
C 19.5 5.8125 13.703125 13.765625 13.703125 26 
C 13.703125 38.234375 19.5 46.1875 28.296875 46.1875 
z
" id="Nimbus_Sans_L_Regular-98"/>
       </defs>
       <use transform="scale(0.996264)" xlink:href="#Nimbus_Sans_L_Regular-74"/>
       <use transform="translate(49.8132 0)scale(0.996264)" xlink:href="#Nimbus_Sans_L_Regular-111"/>
       <use transform="translate(105.204877 0)scale(0.996264)" xlink:href="#Nimbus_Sans_L_Regular-98"/>
       <use transform="translate(188.291724 0)scale(0.996264)" xlink:href="#Nimbus_Sans_L_Regular-49"/>
      </g>
     </g>
    </g>
    <g id="ytick_3">
     <g id="line2d_13">
      <g>
       <use style="stroke:#000000;stroke-width:0.8;" x="609.818182" xlink:href="#maf5d7fdf2a" y="296.317568"/>
      </g>
     </g>
     <g id="text_5">
      <!-- Job 2 -->
      <g transform="translate(616.818182 299.156896)scale(0.08 -0.08)">
       <use transform="scale(0.996264)" xlink:href="#Nimbus_Sans_L_Regular-74"/>
       <use transform="translate(49.8132 0)scale(0.996264)" xlink:href="#Nimbus_Sans_L_Regular-111"/>
       <use transform="translate(105.204877 0)scale(0.996264)" xlink:href="#Nimbus_Sans_L_Regular-98"/>
       <use transform="translate(188.291724 0)scale(0.996264)" xlink:href="#Nimbus_Sans_L_Regular-50"/>
      </g>
     </g>
    </g>
    <g id="ytick_4">
     <g id="line2d_14">
      <g>
       <use style="stroke:#000000;stroke-width:0.8;" x="609.818182" xlink:href="#maf5d7fdf2a" y="344.755258"/>
      </g>
     </g>
     <g id="text_6">
      <!-- \textbf{Group B} -->
      <g transform="translate(616.818182 347.718147)scale(0.08 -0.08)">
       <defs>
        <path d="M 8.203125 0 
L 41 0 
C 49.40625 0 55 1.609375 59.40625 5.3125 
C 63.796875 9.015625 66.59375 15.234375 66.59375 21.046875 
C 66.59375 28.265625 62.703125 33.984375 54.5 38.796875 
C 61.703125 43.390625 64.5 47.59375 64.5 53.796875 
C 64.5 58.796875 62 64.09375 57.90625 67.703125 
C 53.59375 71.390625 48.5 73 40.703125 73 
L 8.203125 73 
z
M 23.203125 60.46875 
L 39.5 60.46875 
C 46.40625 60.46875 50.09375 57.578125 50.09375 52.1875 
C 50.09375 46.890625 46.40625 44 39.5 44 
L 23.203125 44 
z
M 23.203125 31.484375 
L 41.09375 31.484375 
C 48.40625 31.484375 52.203125 28.171875 52.203125 21.953125 
C 52.203125 15.828125 48.40625 12.515625 41.09375 12.515625 
L 23.203125 12.515625 
z
" id="Nimbus_Sans_L_Bold-66"/>
       </defs>
       <use transform="scale(0.996264)" xlink:href="#Nimbus_Sans_L_Bold-71"/>
       <use transform="translate(77.50837 0)scale(0.996264)" xlink:href="#Nimbus_Sans_L_Bold-114"/>
       <use transform="translate(114.270065 0)scale(0.996264)" xlink:href="#Nimbus_Sans_L_Bold-111"/>
       <use transform="translate(175.141696 0)scale(0.996264)" xlink:href="#Nimbus_Sans_L_Bold-117"/>
       <use transform="translate(236.013326 0)scale(0.996264)" xlink:href="#Nimbus_Sans_L_Bold-112"/>
       <use transform="translate(324.580127 0)scale(0.996264)" xlink:href="#Nimbus_Sans_L_Bold-66"/>
      </g>
     </g>
    </g>
    <g id="ytick_5">
     <g id="line2d_15">
      <g>
       <use style="stroke:#000000;stroke-width:0.8;" x="609.818182" xlink:href="#maf5d7fdf2a" y="393.192948"/>
      </g>
     </g>
     <g id="text_7">
      <!-- Job 3 -->
      <g transform="translate(616.818182 396.032276)scale(0.08 -0.08)">
       <defs>
        <path d="M 22.09375 33 
L 23.203125 33 
L 26.90625 33 
C 36.59375 33 41.59375 28.59375 41.59375 20.0625 
C 41.59375 11.125 36.09375 5.8125 26.90625 5.8125 
C 17.296875 5.8125 12.59375 10.640625 12 21.015625 
L 3.203125 21.015625 
C 3.59375 15.28125 4.59375 11.5625 6.296875 8.34375 
C 9.90625 1.515625 16.90625 -2 26.59375 -2 
C 41.203125 -2 50.59375 6.734375 50.59375 20.203125 
C 50.59375 29.25 47.09375 34.28125 38.59375 37.203125 
C 45.203125 39.78125 48.5 44.71875 48.5 51.734375 
C 48.5 63.78125 40.40625 71 26.90625 71 
C 12.59375 71 5 63.28125 4.703125 48.359375 
L 13.5 48.359375 
C 13.59375 52.59375 14 54.953125 15.09375 57.109375 
C 17.09375 60.9375 21.5 63.296875 27 63.296875 
C 34.796875 63.296875 39.5 58.75 39.5 51.359375 
C 39.5 46.421875 37.703125 43.453125 33.796875 41.890625 
C 31.40625 40.90625 28.296875 40.5 22.09375 40.5 
z
" id="Nimbus_Sans_L_Regular-51"/>
       </defs>
       <use transform="scale(0.996264)" xlink:href="#Nimbus_Sans_L_Regular-74"/>
       <use transform="translate(49.8132 0)scale(0.996264)" xlink:href="#Nimbus_Sans_L_Regular-111"/>
       <use transform="translate(105.204877 0)scale(0.996264)" xlink:href="#Nimbus_Sans_L_Regular-98"/>
       <use transform="translate(188.291724 0)scale(0.996264)" xlink:href="#Nimbus_Sans_L_Regular-51"/>
      </g>
     </g>
    </g>
    <g id="ytick_6">
     <g id="line2d_16">
      <g>
       <use style="stroke:#000000;stroke-width:0.8;" x="609.818182" xlink:href="#maf5d7fdf2a" y="441.630638"/>
      </g>
     </g>
     <g id="text_8">
      <!-- Job 4 (\textbf{bold}) -->
      <g transform="translate(616.818182 444.54371)scale(0.08 -0.08)">
       <defs>
        <path d="M 32.703125 17 
L 32.703125 0 
L 41.5 0 
L 41.5 17 
L 52 17 
L 52 24.90625 
L 41.5 24.90625 
L 41.5 71.015625 
L 35 71.015625 
L 2.796875 26.3125 
L 2.796875 17 
z
M 32.703125 24.90625 
L 10.5 24.90625 
L 32.703125 55.984375 
z
" id="Nimbus_Sans_L_Regular-52"/>
        <path d="M 23.59375 73 
C 13.59375 59.84375 7.296875 41.5625 7.296875 25.796875 
C 7.296875 9.9375 13.59375 -8.34375 23.59375 -21.5 
L 29.09375 -21.5 
C 20.296875 -7.140625 15.40625 9.734375 15.40625 25.796875 
C 15.40625 41.765625 20.296875 58.734375 29.09375 73 
z
" id="Nimbus_Sans_L_Regular-40"/>
        <path d="M 5.90625 73 
L 5.90625 -0.03125 
L 19.90625 -0.03125 
L 19.90625 5.671875 
C 23.296875 0.453125 28 -2 34.796875 -2 
C 47.703125 -2 57.5 10.25 57.5 26.484375 
C 57.5 33.765625 55.296875 41.140625 51.703125 46.328125 
C 48 51.609375 41.40625 55 34.796875 55 
C 28.09375 55 23.296875 52.484375 19.90625 47.09375 
L 19.90625 73 
z
M 31.703125 43.28125 
C 38.59375 43.28125 43.5 36.328125 43.5 26.40625 
C 43.5 16.65625 38.59375 9.71875 31.703125 9.71875 
C 24.59375 9.71875 19.90625 16.46875 19.90625 26.6875 
C 19.90625 36.421875 24.703125 43.28125 31.703125 43.28125 
z
" id="Nimbus_Sans_L_Bold-98"/>
        <path d="M 20.703125 73 
L 6.703125 73 
L 6.703125 -0.03125 
L 20.703125 -0.03125 
z
" id="Nimbus_Sans_L_Bold-108"/>
        <path d="M 40.5 -0.03125 
L 54.5 -0.03125 
L 54.5 73 
L 40.5 73 
L 40.5 47.09375 
C 37 52.484375 32.296875 55 25.59375 55 
C 12.703125 55 2.90625 42.640625 2.90625 26.40625 
C 2.90625 19.125 5.09375 11.734375 8.703125 6.5625 
C 12.40625 1.390625 19 -2 25.59375 -2 
C 32.296875 -2 37 0.453125 40.5 5.671875 
z
M 28.703125 43.28125 
C 35.796875 43.28125 40.5 36.421875 40.5 26.203125 
C 40.5 16.46875 35.703125 9.71875 28.703125 9.71875 
C 21.703125 9.71875 16.90625 16.5625 16.90625 26.40625 
C 16.90625 36.328125 21.703125 43.28125 28.703125 43.28125 
z
" id="Nimbus_Sans_L_Bold-100"/>
        <path d="M 9.296875 -21.5 
C 19.296875 -8.34375 25.59375 9.9375 25.59375 25.6875 
C 25.59375 41.5625 19.296875 59.84375 9.296875 73 
L 3.796875 73 
C 12.59375 58.640625 17.5 41.765625 17.5 25.6875 
C 17.5 9.734375 12.59375 -7.25 3.796875 -21.5 
z
" id="Nimbus_Sans_L_Regular-41"/>
       </defs>
       <use transform="scale(0.996264)" xlink:href="#Nimbus_Sans_L_Regular-74"/>
       <use transform="translate(49.8132 0)scale(0.996264)" xlink:href="#Nimbus_Sans_L_Regular-111"/>
       <use transform="translate(105.204877 0)scale(0.996264)" xlink:href="#Nimbus_Sans_L_Regular-98"/>
       <use transform="translate(188.291724 0)scale(0.996264)" xlink:href="#Nimbus_Sans_L_Regular-52"/>
       <use transform="translate(271.378571 0)scale(0.996264)" xlink:href="#Nimbus_Sans_L_Regular-40"/>
       <use transform="translate(304.5538 0)scale(0.996264)" xlink:href="#Nimbus_Sans_L_Bold-98"/>
       <use transform="translate(365.425431 0)scale(0.996264)" xlink:href="#Nimbus_Sans_L_Bold-111"/>
       <use transform="translate(426.297062 0)scale(0.996264)" xlink:href="#Nimbus_Sans_L_Bold-108"/>
       <use transform="translate(453.992231 0)scale(0.996264)" xlink:href="#Nimbus_Sans_L_Bold-100"/>
       <use transform="translate(514.863862 0)scale(0.996264)" xlink:href="#Nimbus_Sans_L_Regular-41"/>
      </g>
     </g>
    </g>
    <g id="ytick_7">
     <g id="line2d_17">
      <g>
       <use style="stroke:#000000;stroke-width:0.8;" x="609.818182" xlink:href="#maf5d7fdf2a" y="490.068328"/>
      </g>
     </g>
     <g id="text_9">
      <!-- \textbf{Group C} -->
      <g transform="translate(616.818182 493.031216)scale(0.08 -0.08)">
       <defs>
        <path d="M 68.203125 48.796875 
C 67.703125 55.125 66.40625 59.140625 63.296875 63.265625 
C 57.703125 70.703125 48.703125 74.8125 37.796875 74.8125 
C 17.203125 74.8125 4.40625 60.03125 4.40625 36.296875 
C 4.40625 12.78125 17.09375 -2 37.40625 -2 
C 55.5 -2 67.59375 8.546875 68.5 25.3125 
L 53.90625 25.3125 
C 53 15.953125 47.09375 10.609375 37.796875 10.609375 
C 26.203125 10.609375 19.40625 20.09375 19.40625 36.09375 
C 19.40625 52.3125 26.5 62 38.296875 62 
C 43.5 62 47.796875 60.171875 50.59375 56.65625 
C 52.203125 54.640625 53 52.71875 53.90625 48.796875 
z
" id="Nimbus_Sans_L_Bold-67"/>
       </defs>
       <use transform="scale(0.996264)" xlink:href="#Nimbus_Sans_L_Bold-71"/>
       <use transform="translate(77.50837 0)scale(0.996264)" xlink:href="#Nimbus_Sans_L_Bold-114"/>
       <use transform="translate(114.270065 0)scale(0.996264)" xlink:href="#Nimbus_Sans_L_Bold-111"/>
       <use transform="translate(175.141696 0)scale(0.996264)" xlink:href="#Nimbus_Sans_L_Bold-117"/>
       <use transform="translate(236.013326 0)scale(0.996264)" xlink:href="#Nimbus_Sans_L_Bold-112"/>
       <use transform="translate(324.580127 0)scale(0.996264)" xlink:href="#Nimbus_Sans_L_Bold-67"/>
      </g>
     </g>
    </g>
    <g id="ytick_8">
     <g id="line2d_18">
      <g>
       <use style="stroke:#000000;stroke-width:0.8;" x="609.818182" xlink:href="#maf5d7fdf2a" y="538.506018"/>
      </g>
     </g>
     <g id="text_10">
      <!-- Long activity -->
      <g transform="translate(616.818182 541.345346)scale(0.08 -0.08)">
       <defs>
        <path d="M 17.296875 73 
L 8 73 
L 8 0 
L 53.296875 0 
L 53.296875 8.21875 
L 17.296875 8.21875 
z
" id="Nimbus_Sans_L_Regular-76"/>
        <path d="M 41.203125 52.203125 
L 41.203125 44.59375 
C 37 50.8125 31.90625 53.71875 25.203125 53.71875 
C 11.90625 53.71875 2.90625 42.0625 2.90625 25 
C 2.90625 16.375 5.203125 9.34375 9.5 4.3125 
C 13.40625 -0.109375 19 -2.703125 24.5 -2.703125 
C 31.09375 -2.703125 35.703125 0.09375 40.40625 6.703125 
L 40.40625 4.03125 
C 40.40625 -3 39.5 -7.265625 37.40625 -10.140625 
C 35.203125 -13.1875 30.90625 -14.984375 25.796875 -14.984375 
C 22 -14.984375 18.59375 -14 16.296875 -12.234375 
C 14.40625 -10.75 13.59375 -9.375 13.09375 -6.34375 
L 4.59375 -6.34375 
C 5.5 -16.140625 13.203125 -22 25.5 -22 
C 33.296875 -22 40 -19.484375 43.40625 -15.296875 
C 47.40625 -10.484375 48.90625 -3.890625 48.90625 8.40625 
L 48.90625 52.203125 
z
M 26.09375 46 
C 35.09375 46 40.40625 38.359375 40.40625 25.203125 
C 40.40625 12.625 35 5 26.203125 5 
C 17.09375 5 11.59375 12.75 11.59375 25.5 
C 11.59375 38.15625 17.203125 46 26.09375 46 
z
" id="Nimbus_Sans_L_Regular-103"/>
        <path d="M 47.09375 34.9375 
C 46.703125 40.03125 45.59375 43.328125 43.59375 46.21875 
C 40 51.109375 33.703125 54 26.40625 54 
C 12.296875 54 3.09375 42.84375 3.09375 25.5 
C 3.09375 8.65625 12.09375 -2 26.296875 -2 
C 38.796875 -2 46.703125 5.46875 47.703125 18.234375 
L 39.296875 18.234375 
C 37.90625 9.875 33.59375 5.703125 26.5 5.703125 
C 17.296875 5.703125 11.796875 13.171875 11.796875 25.5 
C 11.796875 38.53125 17.203125 46.28125 26.296875 46.28125 
C 33.296875 46.28125 37.703125 42.203125 38.703125 34.9375 
z
" id="Nimbus_Sans_L_Regular-99"/>
        <path d="M 25.40625 52.8125 
L 16.796875 52.8125 
L 16.796875 67 
L 8.5 67 
L 8.5 52.8125 
L 1.40625 52.8125 
L 1.40625 46 
L 8.5 46 
L 8.5 6.3125 
C 8.5 1 12.09375 -2 18.59375 -2 
C 20.59375 -2 22.59375 -1.8125 25.40625 -1.296875 
L 25.40625 5.71875 
C 24.296875 5.40625 23 5.3125 21.40625 5.3125 
C 17.796875 5.3125 16.796875 6.3125 16.796875 10.015625 
L 16.796875 46 
L 25.40625 46 
z
" id="Nimbus_Sans_L_Regular-116"/>
        <path d="M 15 52.484375 
L 6.703125 52.484375 
L 6.703125 0 
L 15 0 
z
M 15 73 
L 6.59375 73 
L 6.59375 62.484375 
L 15 62.484375 
z
" id="Nimbus_Sans_L_Regular-105"/>
        <path d="M 28.5 0 
L 48.59375 52.5 
L 39.203125 52.5 
L 24.40625 9.921875 
L 10.40625 52.5 
L 1 52.5 
L 19.40625 0 
z
" id="Nimbus_Sans_L_Regular-118"/>
        <path d="M 38.796875 52.5 
L 24.296875 11.53125 
L 10.90625 52.5 
L 2 52.5 
L 19.703125 -0.328125 
L 16.5 -8.65625 
C 15.203125 -12.375 13.296875 -13.78125 9.796875 -13.78125 
C 8.59375 -13.78125 7.203125 -13.578125 5.40625 -13.171875 
L 5.40625 -20.703125 
C 7.09375 -21.59375 8.796875 -22 11 -22 
C 13.703125 -22 16.59375 -21.09375 18.796875 -19.484375 
C 21.40625 -17.578125 22.90625 -15.359375 24.5 -11.140625 
L 47.796875 52.5 
z
" id="Nimbus_Sans_L_Regular-121"/>
       </defs>
       <use transform="scale(0.996264)" xlink:href="#Nimbus_Sans_L_Regular-76"/>
       <use transform="translate(55.391677 0)scale(0.996264)" xlink:href="#Nimbus_Sans_L_Regular-111"/>
       <use transform="translate(110.783354 0)scale(0.996264)" xlink:href="#Nimbus_Sans_L_Regular-110"/>
       <use transform="translate(166.175031 0)scale(0.996264)" xlink:href="#Nimbus_Sans_L_Regular-103"/>
       <use transform="translate(249.261877 0)scale(0.996264)" xlink:href="#Nimbus_Sans_L_Regular-97"/>
       <use transform="translate(304.653554 0)scale(0.996264)" xlink:href="#Nimbus_Sans_L_Regular-99"/>
       <use transform="translate(354.466755 0)scale(0.996264)" xlink:href="#Nimbus_Sans_L_Regular-116"/>
       <use transform="translate(382.161925 0)scale(0.996264)" xlink:href="#Nimbus_Sans_L_Regular-105"/>
       <use transform="translate(404.278709 0)scale(0.996264)" xlink:href="#Nimbus_Sans_L_Regular-118"/>
       <use transform="translate(454.091909 0)scale(0.996264)" xlink:href="#Nimbus_Sans_L_Regular-105"/>
       <use transform="translate(476.208694 0)scale(0.996264)" xlink:href="#Nimbus_Sans_L_Regular-116"/>
       <use transform="translate(503.903863 0)scale(0.996264)" xlink:href="#Nimbus_Sans_L_Regular-121"/>
      </g>
     </g>
    </g>
    <g id="ytick_9">
     <g id="line2d_19">
      <g>
       <use style="stroke:#000000;stroke-width:0.8;" x="609.818182" xlink:href="#maf5d7fdf2a" y="151.004498"/>
      </g>
     </g>
     <g id="text_11">
      <!-- Martin -->
      <g transform="translate(616.818182 153.843827)scale(0.08 -0.08)">
       <defs>
        <path d="M 46.796875 -0.03125 
L 67.296875 61.171875 
L 67.296875 -0.03125 
L 76.09375 -0.03125 
L 76.09375 73 
L 63.203125 73 
L 42 9.390625 
L 20.40625 73 
L 7.5 73 
L 7.5 -0.03125 
L 16.296875 -0.03125 
L 16.296875 61.171875 
L 37 -0.03125 
z
" id="Nimbus_Sans_L_Regular-77"/>
       </defs>
       <use transform="scale(0.996264)" xlink:href="#Nimbus_Sans_L_Regular-77"/>
       <use transform="translate(82.98843 0)scale(0.996264)" xlink:href="#Nimbus_Sans_L_Regular-97"/>
       <use transform="translate(138.380107 0)scale(0.996264)" xlink:href="#Nimbus_Sans_L_Regular-114"/>
       <use transform="translate(175.539435 0)scale(0.996264)" xlink:href="#Nimbus_Sans_L_Regular-116"/>
       <use transform="translate(203.234605 0)scale(0.996264)" xlink:href="#Nimbus_Sans_L_Regular-105"/>
       <use transform="translate(225.351389 0)scale(0.996264)" xlink:href="#Nimbus_Sans_L_Regular-110"/>
      </g>
     </g>
    </g>
    <g id="ytick_10">
     <g id="line2d_20">
      <g>
       <use style="stroke:#000000;stroke-width:0.8;" x="609.818182" xlink:href="#maf5d7fdf2a" y="102.566809"/>
      </g>
     </g>
     <g id="text_12">
      <!-- Bob -->
      <g transform="translate(616.818182 105.406137)scale(0.08 -0.08)">
       <defs>
        <path d="M 7.90625 0 
L 40.796875 0 
C 47.703125 0 52.796875 1.890625 56.703125 6.0625 
C 60.296875 9.828125 62.296875 14.984375 62.296875 20.65625 
C 62.296875 29.390625 58.296875 34.640625 49 38.21875 
C 55.59375 41.359375 59.09375 46.8125 59.09375 54.296875 
C 59.09375 59.640625 57.09375 64.40625 53.296875 67.84375 
C 49.5 71.375 44.5 73 37.5 73 
L 7.90625 73 
z
M 17.203125 41.21875 
L 17.203125 64.78125 
L 35.203125 64.78125 
C 40.40625 64.78125 43.296875 64.0625 45.796875 62.140625 
C 48.40625 60.109375 49.796875 57.0625 49.796875 52.984375 
C 49.796875 49.03125 48.40625 45.890625 45.796875 43.84375 
C 43.296875 41.921875 40.40625 41.21875 35.203125 41.21875 
z
M 17.203125 8.21875 
L 17.203125 33 
L 39.90625 33 
C 44.40625 33 47.40625 31.90625 49.59375 29.546875 
C 51.796875 27.265625 53 24.109375 53 20.5625 
C 53 17.109375 51.796875 13.953125 49.59375 11.671875 
C 47.40625 9.296875 44.40625 8.21875 39.90625 8.21875 
z
" id="Nimbus_Sans_L_Regular-66"/>
       </defs>
       <use transform="scale(0.996264)" xlink:href="#Nimbus_Sans_L_Regular-66"/>
       <use transform="translate(66.450031 0)scale(0.996264)" xlink:href="#Nimbus_Sans_L_Regular-111"/>
       <use transform="translate(121.841708 0)scale(0.996264)" xlink:href="#Nimbus_Sans_L_Regular-98"/>
      </g>
     </g>
    </g>
    <g id="ytick_11">
     <g id="line2d_21">
      <g>
       <use style="stroke:#000000;stroke-width:0.8;" x="609.818182" xlink:href="#maf5d7fdf2a" y="54.129119"/>
      </g>
     </g>
     <g id="text_13">
      <!-- Al -->
      <g transform="translate(616.818182 56.968447)scale(0.08 -0.08)">
       <defs>
        <path d="M 15.203125 73 
L 6.796875 73 
L 6.796875 -0.03125 
L 15.203125 -0.03125 
z
" id="Nimbus_Sans_L_Regular-108"/>
       </defs>
       <use transform="scale(0.996264)" xlink:href="#Nimbus_Sans_L_Regular-65"/>
       <use transform="translate(66.450031 0)scale(0.996264)" xlink:href="#Nimbus_Sans_L_Regular-108"/>
      </g>
     </g>
    </g>
    <g id="ytick_12">
     <g id="line2d_22">
      <g>
       <use style="stroke:#000000;stroke-width:0.8;" x="609.818182" xlink:href="#maf5d7fdf2a" y="5.691429"/>
      </g>
     </g>
     <g id="text_14">
      <!-- \textbf{Key resource allocations} -->
      <g transform="translate(616.818182 8.568624)scale(0.08 -0.08)">
       <defs>
        <path d="M 22.40625 24.40625 
L 29.90625 32.234375 
L 53.796875 -0.03125 
L 71.703125 -0.03125 
L 39.5 41.546875 
L 68.59375 73 
L 50.90625 73 
L 22.40625 40.9375 
L 22.40625 73 
L 7.40625 73 
L 7.40625 -0.03125 
L 22.40625 -0.03125 
z
" id="Nimbus_Sans_L_Bold-75"/>
        <path d="M 52.40625 23 
C 52.5 24.1875 52.5 24.6875 52.5 25.375 
C 52.5 30.71875 51.703125 35.671875 50.40625 39.4375 
C 46.796875 49.140625 38.09375 55 27.203125 55 
C 11.703125 55 2.203125 43.84375 2.203125 25.796875 
C 2.203125 8.546875 11.59375 -2 26.90625 -2 
C 39 -2 48.796875 4.921875 51.90625 15.546875 
L 38.09375 15.546875 
C 36.40625 11.234375 32.5 8.71875 27.40625 8.71875 
C 23.40625 8.71875 20.203125 10.421875 18.203125 13.4375 
C 16.90625 15.453125 16.40625 17.875 16.203125 23 
z
M 16.40625 32.3125 
C 17.296875 40.296875 20.796875 44.28125 27 44.28125 
C 30.5 44.28125 33.703125 42.625 35.703125 39.890625 
C 37 37.953125 37.59375 35.90625 37.90625 32.3125 
z
" id="Nimbus_Sans_L_Bold-101"/>
        <path d="M 39.40625 54 
L 28.203125 14.640625 
L 16.296875 54 
L 0.90625 54 
L 21 -2.28125 
L 21 -2.375 
L 21 -2.6875 
C 21 -7.78125 17.203125 -11.6875 12.296875 -11.6875 
C 11.203125 -11.6875 10.40625 -11.578125 8.59375 -11.09375 
L 8.59375 -21.59375 
C 10.703125 -21.90625 11.90625 -22 13.59375 -22 
C 17.09375 -22 21.296875 -21.296875 23.703125 -20.296875 
C 27.59375 -18.6875 29.296875 -16.390625 31.59375 -9.984375 
L 53.796875 54 
z
" id="Nimbus_Sans_L_Bold-121"/>
        <path d="M 50.5 36.75 
C 50.296875 48.140625 41.5 55.03125 27 55.03125 
C 13.296875 55.03125 4.796875 48.15625 4.796875 37.109375 
C 4.796875 33.515625 5.90625 30.421875 7.796875 28.328125 
C 9.703125 26.453125 11.40625 25.546875 16.59375 23.859375 
L 33.296875 18.671875 
C 36.796875 17.578125 38 16.484375 38 14.296875 
C 38 11 34.09375 9.015625 27.59375 9.015625 
C 24 9.015625 21.09375 9.71875 19.296875 10.90625 
C 17.796875 12 17.203125 13.09375 16.59375 15.984375 
L 2.90625 15.984375 
C 3.296875 4.1875 12 -2 28.40625 -2 
C 35.90625 -2 41.59375 -0.421875 45.59375 2.765625 
C 49.59375 5.953125 52 10.9375 52 16.21875 
C 52 23.203125 48.5 27.671875 41.40625 29.765625 
L 23.703125 34.84375 
C 19.796875 36.046875 18.796875 36.84375 18.796875 39.03125 
C 18.796875 42.015625 22 44 26.90625 44 
C 33.59375 44 36.90625 41.625 37 36.75 
z
" id="Nimbus_Sans_L_Bold-115"/>
        <path d="M 52.203125 34.1875 
C 51.203125 47.40625 42.40625 55.328125 28.90625 55.328125 
C 12.796875 55.328125 3.40625 44.703125 3.40625 26.25 
C 3.40625 8.40625 12.703125 -2 28.703125 -2 
C 41.796875 -2 50.90625 6.109375 52.203125 19.046875 
L 38.796875 19.046875 
C 37 12.015625 34.203125 9.3125 28.796875 9.3125 
C 21.703125 9.3125 17.40625 15.71875 17.40625 26.25 
C 17.40625 31.359375 18.40625 36.1875 20.09375 39.390625 
C 21.703125 42.40625 24.796875 44 28.796875 44 
C 34.5 44 37.203125 41.296875 38.796875 34.1875 
z
" id="Nimbus_Sans_L_Bold-99"/>
        <path d="M 52.40625 2 
C 49.90625 4.296875 49.203125 5.8125 49.203125 8.609375 
L 49.203125 38.671875 
C 49.203125 49.71875 41.703125 55.328125 27.09375 55.328125 
C 12.5 55.328125 4.90625 49.109375 4 36.59375 
L 17.5 36.59375 
C 18.203125 42.203125 20.5 44 27.40625 44 
C 32.796875 44 35.5 42.203125 35.5 38.59375 
C 35.5 36.796875 34.59375 35.1875 33.09375 34.390625 
C 31.203125 33.390625 31.203125 33.390625 24.296875 32.28125 
L 18.703125 31.265625 
C 8 29.46875 2.796875 23.953125 2.796875 14.234375 
C 2.796875 9.625 4.09375 5.8125 6.59375 3.109375 
C 9.703125 -0.109375 14.40625 -2 19.203125 -2 
C 25.203125 -2 30.703125 0.59375 35.59375 5.703125 
C 35.59375 2.90625 35.90625 1.90625 37.203125 0.296875 
L 52.40625 0.296875 
z
M 35.5 22.046875 
C 35.5 13.921875 31.5 9.3125 24.40625 9.3125 
C 19.703125 9.3125 16.796875 11.8125 16.796875 15.828125 
C 16.796875 20.046875 19 22.046875 24.796875 23.25 
L 29.59375 24.15625 
C 33.296875 24.859375 33.90625 25.046875 35.5 25.859375 
z
" id="Nimbus_Sans_L_Bold-97"/>
        <path d="M 30.09375 53.3125 
L 22.296875 53.3125 
L 22.296875 68 
L 8.296875 68 
L 8.296875 53.3125 
L 1.40625 53.3125 
L 1.40625 44 
L 8.296875 44 
L 8.296875 10.734375 
C 8.296875 2.203125 12.796875 -2 22 -2 
C 25.09375 -2 27.59375 -1.703125 30.09375 -0.90625 
L 30.09375 8.90625 
C 28.703125 8.71875 27.90625 8.609375 26.90625 8.609375 
C 23.203125 8.609375 22.296875 9.71875 22.296875 14.515625 
L 22.296875 44 
L 30.09375 44 
z
" id="Nimbus_Sans_L_Bold-116"/>
        <path d="M 20.703125 54.09375 
L 6.703125 54.09375 
L 6.703125 0 
L 20.703125 0 
z
M 20.703125 73 
L 6.703125 73 
L 6.703125 60.46875 
L 20.703125 60.46875 
z
" id="Nimbus_Sans_L_Bold-105"/>
        <path d="M 6.296875 54.09375 
L 6.296875 0 
L 20.296875 0 
L 20.296875 32.453125 
C 20.296875 38.859375 24.796875 43.078125 31.59375 43.078125 
C 37.59375 43.078125 40.59375 39.765625 40.59375 33.359375 
L 40.59375 0 
L 54.59375 0 
L 54.59375 36.265625 
C 54.59375 48.1875 48 55 36.5 55 
C 29.203125 55 24.296875 52.28125 20.296875 46.28125 
L 20.296875 54.09375 
z
" id="Nimbus_Sans_L_Bold-110"/>
       </defs>
       <use transform="scale(0.996264)" xlink:href="#Nimbus_Sans_L_Bold-75"/>
       <use transform="translate(70.436592 0)scale(0.996264)" xlink:href="#Nimbus_Sans_L_Bold-101"/>
       <use transform="translate(124.334876 0)scale(0.996264)" xlink:href="#Nimbus_Sans_L_Bold-121"/>
       <use transform="translate(207.421723 0)scale(0.996264)" xlink:href="#Nimbus_Sans_L_Bold-114"/>
       <use transform="translate(246.175429 0)scale(0.996264)" xlink:href="#Nimbus_Sans_L_Bold-101"/>
       <use transform="translate(301.567106 0)scale(0.996264)" xlink:href="#Nimbus_Sans_L_Bold-115"/>
       <use transform="translate(356.958783 0)scale(0.996264)" xlink:href="#Nimbus_Sans_L_Bold-111"/>
       <use transform="translate(417.830414 0)scale(0.996264)" xlink:href="#Nimbus_Sans_L_Bold-117"/>
       <use transform="translate(478.702044 0)scale(0.996264)" xlink:href="#Nimbus_Sans_L_Bold-114"/>
       <use transform="translate(515.463739 0)scale(0.996264)" xlink:href="#Nimbus_Sans_L_Bold-99"/>
       <use transform="translate(570.855416 0)scale(0.996264)" xlink:href="#Nimbus_Sans_L_Bold-101"/>
       <use transform="translate(653.942263 0)scale(0.996264)" xlink:href="#Nimbus_Sans_L_Bold-97"/>
       <use transform="translate(709.33394 0)scale(0.996264)" xlink:href="#Nimbus_Sans_L_Bold-108"/>
       <use transform="translate(737.02911 0)scale(0.996264)" xlink:href="#Nimbus_Sans_L_Bold-108"/>
       <use transform="translate(764.724279 0)scale(0.996264)" xlink:href="#Nimbus_Sans_L_Bold-111"/>
       <use transform="translate(825.59591 0)scale(0.996264)" xlink:href="#Nimbus_Sans_L_Bold-99"/>
       <use transform="translate(880.987587 0)scale(0.996264)" xlink:href="#Nimbus_Sans_L_Bold-97"/>
       <use transform="translate(936.379264 0)scale(0.996264)" xlink:href="#Nimbus_Sans_L_Bold-116"/>
       <use transform="translate(969.554494 0)scale(0.996264)" xlink:href="#Nimbus_Sans_L_Bold-105"/>
       <use transform="translate(997.249663 0)scale(0.996264)" xlink:href="#Nimbus_Sans_L_Bold-111"/>
       <use transform="translate(1058.121294 0)scale(0.996264)" xlink:href="#Nimbus_Sans_L_Bold-110"/>
       <use transform="translate(1118.992924 0)scale(0.996264)" xlink:href="#Nimbus_Sans_L_Bold-115"/>
      </g>
     </g>
    </g>
   </g>
   <g id="line2d_23">
    <path clip-path="url(#p76539f582a)" d="M 9.927273 199.442188 
L 609.818182 199.442188 
" style="fill:none;stroke:#000000;stroke-linecap:square;stroke-width:0.75;"/>
   </g>
   <g id="line2d_24">
    <path clip-path="url(#p76539f582a)" d="M 9.927273 199.442188 
L 609.818182 199.442188 
" style="fill:none;stroke:#7f7f7f;stroke-dasharray:0.75,1.2375;stroke-dashoffset:0;stroke-opacity:0.5;stroke-width:0.75;"/>
   </g>
   <g id="line2d_25">
    <path clip-path="url(#p76539f582a)" d="M 9.927273 344.755258 
L 609.818182 344.755258 
" style="fill:none;stroke:#7f7f7f;stroke-dasharray:0.75,1.2375;stroke-dashoffset:0;stroke-opacity:0.5;stroke-width:0.75;"/>
   </g>
   <g id="line2d_26">
    <path clip-path="url(#p76539f582a)" d="M 9.927273 490.068328 
L 609.818182 490.068328 
" style="fill:none;stroke:#7f7f7f;stroke-dasharray:0.75,1.2375;stroke-dashoffset:0;stroke-opacity:0.5;stroke-width:0.75;"/>
   </g>
   <g id="patch_14">
    <path d="M 9.927273 574.834286 
L 9.927273 5.691429 
" style="fill:none;stroke:#000000;stroke-linecap:square;stroke-linejoin:miter;stroke-width:0.8;"/>
   </g>
   <g id="patch_15">
    <path d="M 609.818182 574.834286 
L 609.818182 5.691429 
" style="fill:none;stroke:#000000;stroke-linecap:square;stroke-linejoin:miter;stroke-width:0.8;"/>
   </g>
   <g id="patch_16">
    <path d="M 9.927273 574.834286 
L 609.818182 574.834286 
" style="fill:none;stroke:#000000;stroke-linecap:square;stroke-linejoin:miter;stroke-width:0.8;"/>
   </g>
   <g id="patch_17">
    <path d="M 9.927273 5.691429 
L 609.818182 5.691429 
" style="fill:none;stroke:#000000;stroke-linecap:square;stroke-linejoin:miter;stroke-width:0.8;"/>
   </g>
   <g id="text_15">
    <!-- i -->
    <g transform="translate(161.253731 249.870415)scale(0.08 -0.08)">
     <use transform="scale(0.996264)" xlink:href="#Nimbus_Sans_L_Regular-105"/>
    </g>
   </g>
   <g id="text_16">
    <!-- i: Extra description -->
    <g transform="translate(176.085262 298.308105)scale(0.08 -0.08)">
     <defs>
      <path d="M 21.40625 10.421875 
L 11 10.421875 
L 11 0 
L 21.40625 0 
z
M 21.40625 52.40625 
L 11 52.40625 
L 11 42 
L 21.40625 42 
z
" id="Nimbus_Sans_L_Regular-58"/>
      <path d="M 18.296875 33 
L 58 33 
L 58 41.21875 
L 18.296875 41.21875 
L 18.296875 64.78125 
L 59.5 64.78125 
L 59.5 73 
L 9 73 
L 9 0 
L 61.296875 0 
L 61.296875 8.21875 
L 18.296875 8.21875 
z
" id="Nimbus_Sans_L_Regular-69"/>
      <path d="M 29.203125 27.140625 
L 46.796875 52.484375 
L 37.40625 52.484375 
L 24.796875 33.453125 
L 12.203125 52.484375 
L 2.703125 52.484375 
L 20.203125 26.75 
L 1.703125 0 
L 11.203125 0 
L 24.5 20.125 
L 37.59375 0 
L 47.296875 0 
z
" id="Nimbus_Sans_L_Regular-120"/>
      <path d="M 49.5 73 
L 41.203125 73 
L 41.203125 45.890625 
C 37.703125 51.1875 32.09375 54 25.09375 54 
C 11.5 54 2.59375 43.140625 2.59375 26.484375 
C 2.59375 8.84375 11.296875 -2 25.40625 -2 
C 32.59375 -2 37.59375 0.703125 42.09375 7.203125 
L 42.09375 -0.03125 
L 49.5 -0.03125 
z
M 26.5 46.1875 
C 35.5 46.1875 41.203125 38.234375 41.203125 25.796875 
C 41.203125 13.765625 35.40625 5.8125 26.59375 5.8125 
C 17.40625 5.8125 11.296875 13.859375 11.296875 26 
C 11.296875 38.125 17.40625 46.1875 26.5 46.1875 
z
" id="Nimbus_Sans_L_Regular-100"/>
      <path d="M 51.296875 23.890625 
C 51.296875 31.78125 50.703125 36.53125 49.203125 40.375 
C 45.796875 48.859375 37.796875 54 28 54 
C 13.40625 54 4 42.84375 4 25.703125 
C 4 8.546875 13.09375 -2 27.796875 -2 
C 39.796875 -2 48.09375 4.84375 50.203125 16.3125 
L 41.796875 16.3125 
C 39.5 9.34375 34.796875 5.703125 28.09375 5.703125 
C 22.796875 5.703125 18.296875 8.125 15.5 12.578125 
C 13.5 15.59375 12.796875 18.640625 12.703125 23.890625 
z
M 12.90625 31 
C 13.59375 40.265625 19.5 46.28125 27.90625 46.28125 
C 36.09375 46.28125 42.40625 39.53125 42.40625 31 
C 42.40625 31 42.40625 31 42.296875 31 
z
" id="Nimbus_Sans_L_Regular-101"/>
      <path d="M 43.796875 37.921875 
C 43.703125 48.203125 36.90625 54 24.796875 54 
C 12.59375 54 4.703125 47.71875 4.703125 38.0625 
C 4.703125 29.890625 8.90625 26.015625 21.296875 23.03125 
L 29.09375 21.140625 
C 34.90625 19.734375 37.203125 17.65625 37.203125 13.875 
C 37.203125 9 32.296875 5.703125 25 5.703125 
C 20.5 5.703125 16.703125 7 14.59375 9.1875 
C 13.296875 10.6875 12.703125 12.171875 12.203125 15.84375 
L 3.40625 15.84375 
C 3.796875 3.765625 10.59375 -2 24.296875 -2 
C 37.5 -2 45.90625 4.453125 45.90625 14.515625 
C 45.90625 22.28125 41.5 26.578125 31.09375 29.0625 
L 23.09375 30.953125 
C 16.296875 32.53125 13.40625 34.734375 13.40625 38.40625 
C 13.40625 43.1875 17.703125 46.28125 24.5 46.28125 
C 31.203125 46.28125 34.796875 43.390625 35 37.921875 
z
" id="Nimbus_Sans_L_Regular-115"/>
     </defs>
     <use transform="scale(0.996264)" xlink:href="#Nimbus_Sans_L_Regular-105"/>
     <use transform="translate(22.116784 0)scale(0.996264)" xlink:href="#Nimbus_Sans_L_Regular-58"/>
     <use transform="translate(84.081606 0)scale(0.996264)" xlink:href="#Nimbus_Sans_L_Regular-69"/>
     <use transform="translate(150.531637 0)scale(0.996264)" xlink:href="#Nimbus_Sans_L_Regular-120"/>
     <use transform="translate(200.344837 0)scale(0.996264)" xlink:href="#Nimbus_Sans_L_Regular-116"/>
     <use transform="translate(228.040007 0)scale(0.996264)" xlink:href="#Nimbus_Sans_L_Regular-114"/>
     <use transform="translate(260.21914 0)scale(0.996264)" xlink:href="#Nimbus_Sans_L_Regular-97"/>
     <use transform="translate(343.305986 0)scale(0.996264)" xlink:href="#Nimbus_Sans_L_Regular-100"/>
     <use transform="translate(398.697663 0)scale(0.996264)" xlink:href="#Nimbus_Sans_L_Regular-101"/>
     <use transform="translate(454.08934 0)scale(0.996264)" xlink:href="#Nimbus_Sans_L_Regular-115"/>
     <use transform="translate(503.902541 0)scale(0.996264)" xlink:href="#Nimbus_Sans_L_Regular-99"/>
     <use transform="translate(553.715741 0)scale(0.996264)" xlink:href="#Nimbus_Sans_L_Regular-114"/>
     <use transform="translate(588.384348 0)scale(0.996264)" xlink:href="#Nimbus_Sans_L_Regular-105"/>
     <use transform="translate(610.501133 0)scale(0.996264)" xlink:href="#Nimbus_Sans_L_Regular-112"/>
     <use transform="translate(665.89281 0)scale(0.996264)" xlink:href="#Nimbus_Sans_L_Regular-116"/>
     <use transform="translate(693.587979 0)scale(0.996264)" xlink:href="#Nimbus_Sans_L_Regular-105"/>
     <use transform="translate(715.704764 0)scale(0.996264)" xlink:href="#Nimbus_Sans_L_Regular-111"/>
     <use transform="translate(771.096441 0)scale(0.996264)" xlink:href="#Nimbus_Sans_L_Regular-110"/>
    </g>
   </g>
   <g id="text_17">
    <!-- ii -->
    <g transform="translate(254.381818 298.308105)scale(0.08 -0.08)">
     <use transform="scale(0.996264)" xlink:href="#Nimbus_Sans_L_Regular-105"/>
     <use transform="translate(22.116784 0)scale(0.996264)" xlink:href="#Nimbus_Sans_L_Regular-105"/>
    </g>
   </g>
   <g id="text_18">
    <!-- i: \emph{Fun} job -->
    <g transform="translate(286.438549 395.183485)scale(0.08 -0.08)">
     <defs>
      <path d="M 25.5 33 
L 60.203125 33 
L 61.90625 41.21875 
L 27.203125 41.21875 
L 32.203125 64.78125 
L 71.703125 64.78125 
L 73.40625 73 
L 24.5 73 
L 9 -0.21875 
L 18.40625 -0.21875 
z
" id="Nimbus_Sans_L_Regular_Italic-70"/>
      <path d="M 48.296875 0.296875 
L 59.40625 53 
L 51 53 
L 44.703125 23.109375 
C 42.40625 12.25 35.296875 5.203125 26.796875 5.203125 
C 21.40625 5.203125 17.90625 8.21875 17.90625 12.953125 
C 17.90625 13.765625 18 14.671875 18.203125 15.671875 
L 26.09375 53 
L 17.703125 53 
L 9.09375 12.375 
C 8.90625 11.359375 8.796875 10.265625 8.796875 8.953125 
C 8.796875 2.109375 14 -2 22.59375 -2 
C 30.40625 -2 36.09375 0.390625 41.90625 6.015625 
L 40.703125 0.296875 
z
" id="Nimbus_Sans_L_Regular_Italic-117"/>
      <path d="M 18.09375 52.703125 
L 7 0 
L 15.40625 0 
L 21.5 29.09375 
C 23.90625 40.15625 30.90625 47 39.90625 47 
C 44.90625 47 48.59375 43.484375 48.59375 38.84375 
C 48.59375 38.234375 48.40625 36.71875 48 35.109375 
L 40.59375 0 
L 49 0 
L 57 37.828125 
C 57.296875 39.125 57.40625 40.328125 57.40625 41.640625 
C 57.40625 49.28125 52.09375 54.21875 43.796875 54.21875 
C 36.203125 54.21875 29.59375 51.5 24.40625 46.1875 
L 25.703125 52.703125 
z
" id="Nimbus_Sans_L_Regular_Italic-110"/>
      <path d="M 7 52.4375 
L 7 -7.75 
C 7 -12.984375 5.296875 -14.6875 0.203125 -14.6875 
C -0.09375 -14.6875 -0.09375 -14.6875 -1.796875 -14.6875 
L -1.796875 -21.703125 
C -0.796875 -22 -0.296875 -22 1 -22 
C 10.40625 -22 15.296875 -18.1875 15.296875 -11.0625 
L 15.296875 52.4375 
z
M 15.296875 73 
L 7 73 
L 7 62.484375 
L 15.296875 62.484375 
z
" id="Nimbus_Sans_L_Regular-106"/>
     </defs>
     <use transform="scale(0.996264)" xlink:href="#Nimbus_Sans_L_Regular-105"/>
     <use transform="translate(22.116784 0)scale(0.996264)" xlink:href="#Nimbus_Sans_L_Regular-58"/>
     <use transform="translate(84.081606 0)scale(0.996264)" xlink:href="#Nimbus_Sans_L_Regular_Italic-70"/>
     <use transform="translate(144.953236 0)scale(0.996264)" xlink:href="#Nimbus_Sans_L_Regular_Italic-117"/>
     <use transform="translate(200.344913 0)scale(0.996264)" xlink:href="#Nimbus_Sans_L_Regular_Italic-110"/>
     <use transform="translate(285.074784 0)scale(0.996264)" xlink:href="#Nimbus_Sans_L_Regular-106"/>
     <use transform="translate(307.191568 0)scale(0.996264)" xlink:href="#Nimbus_Sans_L_Regular-111"/>
     <use transform="translate(362.583245 0)scale(0.996264)" xlink:href="#Nimbus_Sans_L_Regular-98"/>
    </g>
   </g>
   <g id="text_19">
    <!-- i -->
    <g transform="translate(349.27924 443.621175)scale(0.08 -0.08)">
     <use transform="scale(0.996264)" xlink:href="#Nimbus_Sans_L_Regular-105"/>
    </g>
   </g>
   <g id="text_20">
    <!-- i -->
    <g transform="translate(308.98806 540.496555)scale(0.08 -0.08)">
     <use transform="scale(0.996264)" xlink:href="#Nimbus_Sans_L_Regular-105"/>
    </g>
   </g>
  </g>
 </g>
 <defs>
  <clipPath id="p76539f582a">
   <rect height="569.142857" width="599.890909" x="9.927273" y="5.691429"/>
  </clipPath>
 </defs>
</svg>
